<svg viewBox="0 0 202 254" fill="none" xmlns="http://www.w3.org/2000/svg">
  <path
    d="M86.5714 10.0083C86.5714 4.8951 90.835 0.75 96.0943 0.75H105.906C111.165 0.75 115.429 4.8951 115.429 10.0083V187.881C115.429 192.994 119.692 197.139 124.951 197.139H144.286V215.936C144.286 221.049 140.022 225.194 134.763 225.194H124.951C119.692 225.194 115.429 229.34 115.429 234.453V243.992C115.429 249.105 111.165 253.25 105.906 253.25H96.0943C90.835 253.25 86.5714 249.105 86.5714 243.992V66.1194C86.5714 61.0062 82.3079 56.8611 77.0486 56.8611H57.7143V38.0639C57.7143 32.9507 61.9778 28.8056 67.2371 28.8056H77.0486C82.3079 28.8056 86.5714 24.6605 86.5714 19.5472V10.0083Z"
    fill="currentColor"
  />
  <path
    d="M28.8571 84.9167V66.1194C28.8571 61.0062 33.1207 56.8611 38.38 56.8611H57.7143V75.6583C57.7143 80.7716 53.4508 84.9167 48.1914 84.9167H28.8571Z"
    fill="currentColor"
  />
  <path
    d="M28.8571 169.083H9.52286C4.26353 169.083 0 164.938 0 159.825V112.832V94.175C0 89.0618 4.26353 84.9167 9.52286 84.9167H28.8571V113.112V169.083Z"
    fill="currentColor"
  />
  <path
    d="M28.8571 169.083H48.1914C53.4508 169.083 57.7143 173.228 57.7143 178.342V187.881C57.7143 192.994 53.4508 197.139 48.1914 197.139H38.38C33.1207 197.139 28.8571 192.994 28.8571 187.881V169.083Z"
    fill="currentColor"
  />
  <path
    d="M173.143 169.083V187.881C173.143 192.994 168.879 197.139 163.62 197.139H144.286V178.342C144.286 173.228 148.549 169.083 153.809 169.083H173.143Z"
    fill="currentColor"
  />
  <path
    d="M173.143 84.9167H192.477C197.736 84.9167 202 89.0618 202 94.175V159.825C202 164.938 197.736 169.083 192.477 169.083H173.143V84.9167Z"
    fill="currentColor"
  />
  <path
    d="M173.143 84.9167H153.809C148.549 84.9167 144.286 80.7716 144.286 75.6583V66.1194C144.286 61.0062 148.549 56.8611 153.809 56.8611H163.62C168.879 56.8611 173.143 61.0062 173.143 66.1194V84.9167Z"
    fill="currentColor"
  />
</svg>
