<svg viewBox="0 0 89 24" fill="none" xmlns="http://www.w3.org/2000/svg">
  <path
    d="M0 4V19.7513H2.71647V14.0725H6.1068C10.0867 14.0725 12.4031 12.228 12.4031 9.03627C12.4031 5.84456 10.0867 4 6.1068 4H0ZM2.71647 11.7927V6.30052H6.16997C8.38105 6.30052 9.58136 7.21244 9.58136 9.03627C9.58136 10.8601 8.38105 11.7927 6.16997 11.7927H2.71647Z"
    fill="currentColor"
  />
  <path
    d="M20.5968 8.33161C18.6384 8.33161 17.5223 9.49223 16.9959 10.8601V4H14.3847V19.7513H17.0169V13.2642C17.0169 11.1295 17.9435 10.1762 19.4175 10.1762C20.9127 10.1762 21.8182 11.1088 21.8182 13.2228V13.2642V19.7513H24.4504V12.7668V12.7254C24.4504 10.2383 23.208 8.33161 20.5968 8.33161Z"
    fill="currentColor"
  />
  <path d="M29.9304 6.8601V4H27.1718V6.8601H29.9304ZM29.8672 19.7513V8.58031H27.235V19.7513H29.8672Z" fill="currentColor" />
  <path d="M38.7918 4H36.0754V19.7513H45.9305V17.4508H38.7918V4Z" fill="currentColor" />
  <path
    d="M52.464 8.33161C49.6844 8.33161 47.7471 9.72021 47.4733 11.9171H50.1266C50.274 10.9845 51.0531 10.1554 52.464 10.1554C54.0434 10.1554 54.8015 11.2124 54.8015 12.5181V12.5596V12.7047L51.7902 13.0155C49.6423 13.2228 47.0943 13.7824 47.0943 16.3731C47.0943 18.487 48.821 20 50.9689 20C53.1379 20 54.1065 19.0052 54.8225 17.5337V19.7513H57.4337V12.6632V12.6218C57.4337 10.342 55.9596 8.33161 52.464 8.33161ZM51.9797 18.3627C50.7794 18.3627 49.7686 17.6373 49.7686 16.3731C49.7686 14.9223 51.3269 14.715 52.7588 14.5492L54.8015 14.342V15.0052C54.8015 16.8705 53.8538 18.3627 51.9797 18.3627Z"
    fill="currentColor"
  />
  <path
    d="M66.6915 8.33161C64.6278 8.33161 63.3222 9.72021 62.7957 11.2124V4H60.1846V19.7513H62.7957V17.3679C63.4485 18.9016 64.9647 20 66.6915 20C69.4711 20 71.4506 17.5544 71.4506 14.1554C71.4506 10.7565 69.45 8.33161 66.6915 8.33161ZM65.7439 18.1762C63.8065 18.1762 62.7115 16.6218 62.7115 14.1554C62.7115 11.7098 63.8065 10.1554 65.7439 10.1554C67.7022 10.1554 68.7762 11.7098 68.7762 14.1554C68.7762 16.6218 67.7022 18.1762 65.7439 18.1762Z"
    fill="currentColor"
  />
  <path
    d="M77.9672 20C80.8731 20 83 18.715 83 16.4974C83 14.715 81.9682 13.6788 79.5886 13.1813L77.7987 12.8083C76.4299 12.5181 75.735 12.2487 75.735 11.4819C75.735 10.6321 76.7669 10.1554 77.904 10.1554C78.9148 10.1554 79.8413 10.6114 80.1361 11.4404H82.7894C82.3051 9.36788 80.2835 8.33161 77.8829 8.33161C75.2928 8.33161 73.187 9.63731 73.187 11.6891C73.187 13.3886 74.4505 14.3212 76.5142 14.7565L78.3041 15.1503C79.9466 15.4819 80.4731 15.8964 80.4731 16.7461C80.4731 17.6166 79.6307 18.1762 78.0303 18.1762C76.9564 18.1762 75.8614 17.7824 75.5876 16.4352H72.9343C73.2712 18.7979 75.3139 20 77.9672 20Z"
    fill="currentColor"
  />
</svg>
